<svg version="1.1" viewBox="0.0 0.0 1270.2125984251968 702.2099737532808" fill="none" stroke="none" stroke-linecap="square" stroke-miterlimit="10" xmlns:xlink="http://www.w3.org/1999/xlink" xmlns="http://www.w3.org/2000/svg"><clipPath id="p.0"><path d="m0 0l1270.2126 0l0 702.20996l-1270.2126 0l0 -702.20996z" clip-rule="nonzero"/></clipPath><g clip-path="url(#p.0)"><path fill="#000000" fill-opacity="0.0" d="m0 0l1270.2126 0l0 702.20996l-1270.2126 0z" fill-rule="evenodd"/><path fill="#000000" fill-opacity="0.0" d="m2.066929 352.0971l1266.0787 -1.9842529" fill-rule="evenodd"/><path stroke="#f1c232" stroke-width="4.0" stroke-linejoin="round" stroke-linecap="butt" d="m17.22691 352.07336l1235.7588 -1.9367676" fill-rule="evenodd"/><path stroke="#f1c232" stroke-width="4.0" stroke-linecap="butt" d="m4.0669265 352.09396c-0.005695343 -3.6340027 2.9356503 -6.5845947 6.5696797 -6.5903015c3.6340284 -0.0056762695 6.584608 2.935669 6.5903034 6.569702c0.005695343 3.6340332 -2.9356499 6.5845947 -6.5696793 6.5903015c-3.6340284 0.0056762695 -6.584608 -2.935669 -6.590304 -6.569702z" fill-rule="nonzero"/><path stroke="#f1c232" stroke-width="4.0" stroke-linecap="butt" d="m1266.1456 350.116c0.0057373047 3.6340332 -2.935669 6.5845947 -6.56958 6.5903015c-3.6340332 0.005706787 -6.584717 -2.9356384 -6.590332 -6.5696716c-0.0057373047 -3.6340332 2.935669 -6.5846252 6.569702 -6.5903015c3.6340332 -0.005706787 6.5845947 2.9356384 6.59021 6.5696716z" fill-rule="nonzero"/></g></svg>