<svg fill="#000000" xmlns="http://www.w3.org/2000/svg"  viewBox="0 0 50 50" width="50px" height="50px"><path d="M 5 5 C 2.2545455 5 0 7.2545455 0 10 L 0 39 C 0 41.745455 2.2545455 44 5 44 L 21 44 C 22.654545 44 24 45.345455 24 47 A 1.0001 1.0001 0 0 0 24.005859 47.099609 A 1.0001 1.0001 0 0 0 24.023438 47.199219 A 1.0001 1.0001 0 0 0 24.048828 47.294922 A 1.0001 1.0001 0 0 0 24.083984 47.388672 A 1.0001 1.0001 0 0 0 24.128906 47.478516 A 1.0001 1.0001 0 0 0 24.244141 47.640625 A 1.0001 1.0001 0 0 0 24.470703 47.835938 A 1.0001 1.0001 0 0 0 24.84375 47.974609 A 1.0001 1.0001 0 0 0 25.042969 47.984375 A 1.0001 1.0001 0 0 0 25.517578 47.841797 A 1.0001 1.0001 0 0 0 25.599609 47.785156 A 1.0001 1.0001 0 0 0 25.746094 47.650391 A 1.0001 1.0001 0 0 0 25.910156 47.400391 A 1.0001 1.0001 0 0 0 25.947266 47.306641 A 1.0001 1.0001 0 0 0 25.974609 47.210938 A 1.0001 1.0001 0 0 0 25.992188 47.113281 A 1.0001 1.0001 0 0 0 26 47 C 26 45.345455 27.345455 44 29 44 L 45 44 C 47.745455 44 50 41.745455 50 39 L 50 10 C 50 7.2545455 47.745455 5 45 5 L 29 5 C 27.327085 5 25.909357 5.8908265 25 7.1660156 C 24.090643 5.8908265 22.672915 5 21 5 L 5 5 z M 5 7 L 21 7 C 22.654545 7 24 8.3454545 24 10 L 24 43.113281 C 23.153926 42.457562 22.144393 42 21 42 L 5 42 C 3.3454545 42 2 40.654545 2 39 L 2 10 C 2 8.3454545 3.3454545 7 5 7 z M 29 7 L 45 7 C 46.654545 7 48 8.3454545 48 10 L 48 39 C 48 40.654545 46.654545 42 45 42 L 29 42 C 27.855607 42 26.846074 42.457562 26 43.113281 L 26 10 C 26 8.3454545 27.345455 7 29 7 z"/></svg>