<svg fill="#000000" xmlns="http://www.w3.org/2000/svg"  viewBox="0 0 50 50" width="50px" height="50px"><path d="M 29 9 C 23.681486 9 19.196531 12.242777 17.179688 16.859375 C 16.186519 16.341411 15.111593 16 14 16 C 10.721458 16 7.9522599 18.357231 7.2988281 21.460938 C 3.0760562 22.67528 -1.1842379e-15 26.456612 0 31 C 0 36.533333 4.4666667 41 10 41 L 41 41 C 45.945455 41 50 36.945455 50 32 C 50 27.367091 46.398392 23.647944 41.882812 23.179688 C 41.929761 22.796601 42 22.438286 42 22 C 42 14.854545 36.145455 9 29 9 z M 29 11 C 35.054545 11 40 15.945455 40 22 C 40 22.604762 39.91243 23.146176 39.810547 23.859375 A 1.0001 1.0001 0 0 0 40.800781 25 L 41 25 C 44.854545 25 48 28.145455 48 32 C 48 35.854545 44.854545 39 41 39 L 10 39 C 5.5333333 39 2 35.466667 2 31 C 2 27.165116 4.6601412 23.977947 8.3144531 23.175781 A 1.0001 1.0001 0 0 0 9.09375 22.302734 C 9.3384669 19.937137 11.511111 18 14 18 C 15.094872 18 16.177762 18.342991 16.974609 18.980469 A 1.0001 1.0001 0 0 0 18.548828 18.515625 C 20.015749 14.114863 24.127673 11 29 11 z M 24 20 L 24 31.585938 L 19.707031 27.292969 L 18.292969 28.707031 L 25 35.414062 L 31.707031 28.707031 L 30.292969 27.292969 L 26 31.585938 L 26 20 L 24 20 z"/></svg>